<svg xmlns="http://www.w3.org/2000/svg" width="800" height="800" fill="none" viewBox="0 0 24 24"><path stroke="#fff" stroke-linecap="round" stroke-linejoin="round" stroke-width="1.5" d="M21 19.186v-2.71a1.804 1.804 0 0 0-.43-1.212c-.808-.953-3.585-1.563-4.685-1.329-.858.183-1.458 1.044-2.044 1.63a14.467 14.467 0 0 1-5.43-5.42c.586-.586 1.449-1.185 1.632-2.04.234-1.097-.375-3.856-1.322-4.668A1.812 1.812 0 0 0 7.523 3H4.808c-1.034.001-1.895.929-1.8 1.97C3 13.934 10 21 19.025 20.992c1.046.094 1.978-.77 1.974-1.807Z"/></svg>